# xmcd
#
# Track frame offsets:
#	150
#	19753
#	40036
#	60233
#	78800
#	93376
#	115763
#	133734
#	156503
#	173859
#	188905
#	205779
#	227637
#	249029
#	268589
#	286278
#	308857
#	325190
#
# Disc length: 4575 seconds
#
# Revision: 1
# Processed by: cddbd v1.5.2PL0 Copyright (c) Steve Scherf et al.
# Submitted via: audiograbber 1.83.01
#
DISCID=e711dd12
DTITLE=Georg Danzer - Die ultimative Liedersammlung  1
DYEAR=1900
DGENRE=Austropop
TTITLE0=Wieder in Wien
TTITLE1=Der Clown kehrte zu seinen Tränen zurück
TTITLE2=Mei allerliebster Freund
TTITLE3=Zwa wie mia zwa (& W. Ambros)
TTITLE4=Vorstcadtcasanova (Originalversion)
TTITLE5=Im Häf'n schdiabd di söh (Radio Version)
TTITLE6=Anplaggd
TTITLE7=Grosse Dinge
TTITLE8=$ex im Internet
TTITLE9=Sachertorte (Das kleinere Stück)
TTITLE10=Des is mei Frau
TTITLE11=A erstickerter Schrei
TTITLE12=Eigentlich bin ich ein Schwein
TTITLE13=Über meine Seel führt mein Weg (El Camino)
TTITLE14=Dumdumdurumdum
TTITLE15=Von Scheibbs bis NebreksaTrack 16
TTITLE16=Paniglgass'n Nr. 17
TTITLE17=I fürcht' mi' ned
EXTD=
EXTT0=
EXTT1=
EXTT2=
EXTT3=
EXTT4=
EXTT5=
EXTT6=
EXTT7=
EXTT8=
EXTT9=
EXTT10=
EXTT11=
EXTT12=
EXTT13=
EXTT14=
EXTT15=
EXTT16=
EXTT17=
PLAYORDER=
